<svg width="16" height="16" viewBox="0 0 16 16" fill="none" xmlns="http://www.w3.org/2000/svg">
<g id="gridicons:share">
<path id="Vector" d="M12 10.6667C11.4747 10.6667 11 10.8733 10.644 11.2047L5.94 8.46668C5.97333 8.31334 6 8.16001 6 8.00001C6 7.84001 5.97333 7.68668 5.94 7.53334L10.64 4.79334C11 5.12668 11.4733 5.33334 12 5.33334C13.1067 5.33334 14 4.44001 14 3.33334C14 2.22668 13.1067 1.33334 12 1.33334C10.8933 1.33334 10 2.22668 10 3.33334C10 3.49334 10.0267 3.64668 10.06 3.80001L5.36 6.54001C5 6.20668 4.52667 6.00001 4 6.00001C2.89333 6.00001 2 6.89334 2 8.00001C2 9.10668 2.89333 10 4 10C4.52667 10 5 9.79334 5.36 9.46001L10.0587 12.2053C10.0211 12.3563 10.0014 12.5111 10 12.6667C10 13.0622 10.1173 13.4489 10.3371 13.7778C10.5568 14.1067 10.8692 14.3631 11.2346 14.5144C11.6001 14.6658 12.0022 14.7054 12.3902 14.6282C12.7781 14.5511 13.1345 14.3606 13.4142 14.0809C13.6939 13.8012 13.8844 13.4448 13.9616 13.0569C14.0387 12.6689 13.9991 12.2668 13.8478 11.9013C13.6964 11.5359 13.44 11.2235 13.1111 11.0037C12.7822 10.784 12.3956 10.6667 12 10.6667Z" fill="white"/>
</g>
</svg>
