<svg width="28" height="29" viewBox="0 0 28 29" fill="none" xmlns="http://www.w3.org/2000/svg">
<g id="mdi:account-alert-outline">
<path id="Vector" d="M23.3333 14.5V8.80892H25.6666V15.6382H23.3333M23.3333 20.191H25.6666V17.9146H23.3333M11.6666 15.6382C14.7816 15.6382 21 17.1634 21 20.191V23.6057H2.33331V20.191C2.33331 17.1634 8.55165 15.6382 11.6666 15.6382ZM11.6666 5.39429C12.9043 5.39429 14.0913 5.87396 14.9665 6.72778C15.8416 7.58161 16.3333 8.73964 16.3333 9.94713C16.3333 11.1546 15.8416 12.3127 14.9665 13.1665C14.0913 14.0203 12.9043 14.5 11.6666 14.5C10.429 14.5 9.24198 14.0203 8.36682 13.1665C7.49164 12.3127 6.99998 11.1546 6.99998 9.94713C6.99998 8.73964 7.49164 7.58161 8.36682 6.72778C9.24198 5.87396 10.429 5.39429 11.6666 5.39429ZM11.6666 17.8008C8.20165 17.8008 4.54998 19.4626 4.54998 20.191V21.4431H18.7833V20.191C18.7833 19.4626 15.1316 17.8008 11.6666 17.8008ZM11.6666 7.55689C11.0169 7.55689 10.3937 7.80872 9.93424 8.25697C9.47477 8.70523 9.21665 9.3132 9.21665 9.94713C9.21665 10.5811 9.47477 11.189 9.93424 11.6373C10.3937 12.0855 11.0169 12.3374 11.6666 12.3374C12.3164 12.3374 12.9396 12.0855 13.3991 11.6373C13.8585 11.189 14.1166 10.5811 14.1166 9.94713C14.1166 9.3132 13.8585 8.70523 13.3991 8.25697C12.9396 7.80872 12.3164 7.55689 11.6666 7.55689Z" fill="black"/>
</g>
</svg>
