<svg width="28" height="29" viewBox="0 0 28 29" fill="none" xmlns="http://www.w3.org/2000/svg">
<g id="ant-design:shopping-cart-outlined">
<path id="Vector" d="M25.2356 19.5659H8.95237L9.76995 17.9413L23.3543 17.9173C23.8137 17.9173 24.2074 17.5972 24.2895 17.1543L26.1707 6.88109C26.2199 6.61166 26.1461 6.33422 25.9656 6.12347C25.8765 6.01975 25.7652 5.93621 25.6396 5.87862C25.514 5.82104 25.3771 5.79081 25.2383 5.79001L7.95706 5.73399L7.8094 5.0564C7.71643 4.62423 7.31721 4.30945 6.86331 4.30945H2.6387C2.3827 4.30945 2.13719 4.40866 1.95617 4.58526C1.77516 4.76186 1.67346 5.00139 1.67346 5.25114C1.67346 5.50089 1.77516 5.74042 1.95617 5.91702C2.13719 6.09362 2.3827 6.19283 2.6387 6.19283H6.08127L6.72659 9.18597L8.31526 16.6902L6.26995 19.9474C6.16373 20.0873 6.09975 20.2533 6.08526 20.4268C6.07076 20.6003 6.10632 20.7743 6.18791 20.9291C6.35198 21.2466 6.68284 21.4466 7.04924 21.4466H8.76643C8.40035 21.921 8.20261 22.4988 8.20315 23.0926C8.20315 24.6025 9.46096 25.8296 11.0086 25.8296C12.5563 25.8296 13.8141 24.6025 13.8141 23.0926C13.8141 22.4977 13.6117 21.9188 13.2508 21.4466H17.6559C17.2898 21.921 17.0921 22.4988 17.0926 23.0926C17.0926 24.6025 18.3504 25.8296 19.8981 25.8296C21.4457 25.8296 22.7035 24.6025 22.7035 23.0926C22.7035 22.4977 22.5012 21.9188 22.1403 21.4466H25.2383C25.7688 21.4466 26.2035 21.0252 26.2035 20.505C26.202 20.2555 26.0993 20.0167 25.9179 19.8408C25.7366 19.6649 25.4913 19.5661 25.2356 19.5659ZM8.35901 7.5907L24.1035 7.64138L22.5613 16.0659L10.1938 16.0873L8.35901 7.5907ZM11.0086 23.9356C10.5328 23.9356 10.1446 23.5568 10.1446 23.0926C10.1446 22.6284 10.5328 22.2496 11.0086 22.2496C11.4844 22.2496 11.8727 22.6284 11.8727 23.0926C11.8727 23.3162 11.7816 23.5306 11.6196 23.6887C11.4576 23.8468 11.2378 23.9356 11.0086 23.9356ZM19.8981 23.9356C19.4223 23.9356 19.034 23.5568 19.034 23.0926C19.034 22.6284 19.4223 22.2496 19.8981 22.2496C20.3739 22.2496 20.7621 22.6284 20.7621 23.0926C20.7621 23.3162 20.6711 23.5306 20.5091 23.6887C20.347 23.8468 20.1272 23.9356 19.8981 23.9356Z" fill="black"/>
</g>
</svg>
